<svg version="1" xmlns="http://www.w3.org/2000/svg" width="21.333" height="21.333" viewBox="0 0 16.000000 16.000000"><path d="M3.31.124c-.169.06-.288.132-.407.247-.146.141-.274.288-.274.313 0 .009-.014.03-.032.043a3.04 3.04 0 0 0-.194.307c-.092.153-.174.294-.188.313-.196.32-.555 1.044-.757 1.531-.224.538-.292.72-.292.764a.2.2 0 0 1-.023.08c-.018.036-.066.19-.176.562-.03.103-.06.224-.18.743-.05.21-.049.2-.078.396-.014.098-.03.2-.035.228-.018.108-.057.398-.066.496-.007.057-.018.174-.027.263-.032.325-.014 2.09.027 2.492.03.3.146.82.242 1.097.048.142.272.7.327.823.019.037.08.176.137.309.245.546.231.519.449.903l.187.331c.14.256.67.958.972 1.294.326.359.777.784 1.028.965.083.06.165.123.185.142.076.068.549.345.896.52.673.341 1.694.639 2.341.682a21.03 21.03 0 0 0 1.235-.002 6.191 6.191 0 0 0 .606-.094c.38-.069.953-.245 1.314-.402.112-.05.23-.099.263-.108.167-.052.704-.354.994-.56.478-.336.748-.576 1.246-1.1.316-.333.469-.525.83-1.044.242-.35.306-.46.599-1.033.283-.554.359-.723.53-1.191.222-.608.275-.785.316-1.11.011-.09.03-.198.066-.422a3.4 3.4 0 0 0 .025-.194c.007-.069.018-.158.023-.195.066-.498.053-2.11-.023-2.571a3.85 3.85 0 0 1-.023-.16c-.004-.044-.016-.117-.02-.16a6.062 6.062 0 0 1-.025-.183 5.775 5.775 0 0 0-.092-.544l-.07-.298a17.574 17.574 0 0 0-.517-1.639 8.865 8.865 0 0 0-.526-1.108 30.178 30.178 0 0 1-.172-.298l-.2-.354a28.885 28.885 0 0 1-.19-.331c-.261-.471-.357-.586-.595-.7-.11-.052-.164-.064-.35-.068-.473-.014-.839.178-1.017.53-.112.222-.07.487.151.983l.08.18.075.172c.026.057.099.233.163.389.066.157.128.306.14.331.01.025.043.103.068.172a18.57 18.57 0 0 1 .363.994c.124.373.27.926.313 1.177.005.032.021.103.032.16.012.057.032.17.046.252.014.082.03.173.034.205.007.032.016.115.026.183.006.069.018.144.022.167.021.11.042.629.042 1.068 0 .52-.023.955-.064 1.177l-.028.171a8.16 8.16 0 0 1-.46 1.67c-.354.804-.802 1.524-1.225 1.97a5.046 5.046 0 0 0-.134.153c-.092.117-.675.59-.892.722a5.024 5.024 0 0 1-.38.215 8.861 8.861 0 0 0-.28.147.92.92 0 0 1-.184.073c-.043.009-.084.027-.093.04-.014.026-.224.085-.67.193-.236.06-.284.062-.8.064-.707 0-.768-.01-1.269-.176a4.982 4.982 0 0 1-1.152-.585c-.42-.282-.978-.84-1.365-1.358-.208-.28-.233-.316-.274-.396l-.151-.263a6.613 6.613 0 0 1-.478-1.024 7.496 7.496 0 0 1-.36-1.41l-.026-.206a5.265 5.265 0 0 1-.064-.834c.002-.478.014-.89.03-1.04l.034-.332c.02-.226.027-.27.043-.366.028-.153.06-.331.071-.4.01-.055.03-.146.046-.217.01-.039.06-.27.066-.309.005-.025.025-.107.046-.182.023-.076.064-.231.094-.343.061-.231.327-1.04.354-1.075.01-.013.034-.08.057-.148.039-.117.071-.192.258-.595.04-.082.096-.19.13-.24.117-.169.291-.6.346-.857a1.957 1.957 0 0 0-.002-.567C4.293.41 4.108.217 3.79.124a.947.947 0 0 0-.48 0zM14.434 6.44c.016.123.002.142-.12.158-.077.011-.095.004-.118-.037a.26.26 0 0 1-.018-.123c.007-.076.04-.094.178-.099.057-.002.064.005.078.1zm-12.655.064c.04.027.05.053.043.119-.011.1-.07.135-.18.105-.08-.023-.106-.096-.065-.201.025-.071.12-.08.202-.023zm12.598 2.24c.023.02.007.17-.02.201-.03.037-.127.048-.193.023-.041-.016-.048-.112-.014-.2.02-.056.03-.06.12-.047a.8.8 0 0 1 .107.023zm-12.48.144c.028.053.032.208.007.208a.848.848 0 0 0-.105.02c-.096.024-.107.012-.137-.148-.012-.06-.005-.075.036-.096.083-.039.172-.032.2.016zm11.6 2.094c.096.041.107.096.036.21l-.043.074-.087-.035a3.355 3.355 0 0 1-.103-.045c-.018-.012.023-.17.055-.21.03-.035.041-.035.142.006zM2.76 11.13c.06.08.046.139-.045.208-.067.048-.069.048-.115.006a.45.45 0 0 1-.077-.102c-.032-.06-.03-.064.052-.122.11-.073.124-.07.185.01zm9.556 1.737l.073.064-.091.096c-.092.094-.094.094-.149.055-.084-.064-.105-.128-.062-.192.074-.11.126-.117.229-.023zm-8.282.073c.032.041.055.087.046.105-.016.044-.11.165-.129.165-.02.002-.134-.115-.16-.16-.016-.03-.004-.057.05-.11.088-.09.117-.09.193 0z"/></svg>