<?xml version="1.0" standalone="no"?>
<!DOCTYPE svg PUBLIC "-//W3C//DTD SVG 20010904//EN"
 "http://www.w3.org/TR/2001/REC-SVG-20010904/DTD/svg10.dtd">
<svg version="1.0" xmlns="http://www.w3.org/2000/svg"
 width="16.000000pt" height="16.000000pt" viewBox="0 0 16.000000 16.000000"
 preserveAspectRatio="xMidYMid meet">
<metadata>
Created by potrace 1.11, written by Peter Selinger 2001-2013
</metadata>
<g transform="translate(0.000000,16.000000) scale(0.002286,-0.002286)"
fill="#000000" stroke="none">
<path d="M1448 6945 c-74 -26 -126 -58 -178 -108 -64 -62 -120 -126 -120 -137
0 -4 -6 -13 -14 -19 -7 -6 -46 -67 -85 -134 -40 -67 -76 -129 -82 -137 -86
-140 -243 -457 -331 -670 -98 -235 -128 -315 -128 -334 0 -9 -4 -25 -10 -35
-8 -16 -29 -83 -77 -246 -13 -45 -26 -98 -79 -325 -22 -92 -21 -87 -34 -173
-6 -43 -13 -88 -15 -100 -8 -47 -25 -174 -29 -217 -3 -25 -8 -76 -12 -115 -14
-142 -6 -914 12 -1090 13 -131 64 -359 106 -480 21 -62 119 -306 143 -360 8
-16 35 -77 60 -135 107 -239 101 -227 196 -395 34 -60 71 -126 82 -145 61
-112 293 -419 425 -566 143 -157 340 -343 450 -422 36 -26 72 -54 81 -62 33
-30 240 -151 392 -228 294 -149 741 -279 1024 -298 78 -5 496 -5 540 1 113 14
154 20 205 30 14 3 41 8 60 11 166 30 417 107 575 176 49 22 101 43 115 47 73
23 308 155 435 245 209 147 327 252 545 481 138 146 205 230 363 457 106 153
134 201 262 452 124 242 157 316 232 521 97 266 120 343 138 485 5 40 13 87
29 185 3 17 8 55 11 85 3 30 8 69 10 85 29 218 23 923 -10 1125 -3 19 -8 51
-10 70 -2 19 -7 51 -9 70 -3 19 -8 55 -11 80 -12 95 -26 177 -40 238 -8 34
-22 92 -31 130 -37 159 -147 506 -226 717 -53 141 -160 366 -230 485 -24 41
-58 100 -75 130 -17 30 -56 100 -88 155 -32 55 -69 120 -83 145 -114 206 -156
256 -260 306 -48 23 -72 28 -153 30 -207 6 -367 -78 -445 -232 -49 -97 -31
-213 66 -430 12 -27 28 -62 35 -79 7 -16 22 -50 33 -75 11 -25 43 -102 71
-170 29 -69 56 -134 61 -145 5 -11 19 -45 30 -75 11 -30 25 -64 30 -75 16 -36
88 -237 129 -360 54 -163 118 -405 137 -515 2 -14 9 -45 14 -70 5 -25 14 -74
20 -110 6 -36 13 -76 15 -90 3 -14 7 -50 11 -80 3 -30 8 -63 10 -73 9 -48 18
-275 18 -467 0 -228 -10 -418 -28 -515 -3 -16 -8 -50 -12 -75 -24 -190 -126
-557 -201 -730 -155 -352 -351 -667 -536 -862 -19 -21 -46 -51 -59 -67 -40
-51 -295 -258 -390 -316 -49 -31 -124 -73 -166 -94 -42 -21 -98 -50 -123 -64
-25 -13 -61 -28 -80 -32 -19 -4 -37 -12 -41 -18 -6 -11 -98 -37 -293 -84 -103
-26 -124 -27 -350 -28 -309 0 -336 4 -555 77 -159 53 -339 145 -504 256 -184
123 -428 367 -597 594 -91 122 -102 138 -120 173 -9 16 -39 68 -66 115 -80
138 -155 299 -209 448 -73 201 -138 457 -158 617 -2 17 -7 57 -11 90 -3 33 -9
71 -11 85 -9 53 -17 189 -17 280 1 209 6 389 13 455 4 39 11 104 15 145 9 99
12 118 19 160 12 67 26 145 31 175 4 24 13 64 20 95 4 17 26 118 29 135 2 11
11 47 20 80 10 33 28 101 41 150 27 101 143 455 155 470 4 6 15 35 25 65 17
51 31 84 113 260 17 36 42 83 57 105 51 74 127 263 151 375 12 56 11 203 -1
248 -37 142 -118 226 -257 267 -63 18 -159 18 -210 0z m4866 -2763 c7 -54 1
-62 -52 -69 -34 -5 -42 -2 -52 16 -6 12 -10 36 -8 54 3 33 18 41 78 43 25 1
28 -2 34 -44z m-5536 -28 c18 -12 22 -23 19 -52 -5 -44 -31 -59 -79 -46 -35
10 -46 42 -28 88 11 31 52 35 88 10z m5511 -980 c10 -9 3 -74 -9 -88 -13 -16
-55 -21 -84 -10 -18 7 -21 49 -6 88 9 24 13 26 52 20 24 -4 45 -8 47 -10z
m-5459 -63 c12 -23 14 -91 3 -91 -5 0 -25 -4 -46 -9 -42 -10 -47 -5 -60 65 -5
26 -2 33 16 42 36 17 75 14 87 -7z m5074 -916 c42 -18 47 -42 16 -92 l-19 -32
-38 15 c-21 9 -41 18 -45 20 -8 5 10 74 24 92 13 15 18 15 62 -3z m-4696 -64
c26 -35 20 -61 -20 -91 -29 -21 -30 -21 -50 -3 -11 10 -26 30 -34 45 -14 26
-13 28 23 53 48 32 54 31 81 -4z m4180 -760 l32 -28 -40 -42 c-40 -41 -41 -41
-65 -24 -37 28 -46 56 -27 84 32 48 55 51 100 10z m-3623 -32 c14 -18 24 -38
20 -46 -7 -19 -48 -72 -56 -72 -9 -1 -59 50 -70 70 -7 13 -2 25 22 48 38 39
51 39 84 0z"/>
</g>
</svg>
