<?xml version="1.0" standalone="no"?>
<!DOCTYPE svg PUBLIC "-//W3C//DTD SVG 20010904//EN"
 "http://www.w3.org/TR/2001/REC-SVG-20010904/DTD/svg10.dtd">
<svg version="1.0" xmlns="http://www.w3.org/2000/svg"
 width="500.000000pt" height="500.000000pt" viewBox="0 0 500.000000 500.000000"
 preserveAspectRatio="xMidYMid meet">
<metadata>
Created by potrace 1.11, written by Peter Selinger 2001-2013
</metadata>
<g transform="translate(0.000000,500.000000) scale(0.100000,-0.100000)"
fill="#000000" stroke="none">
<path d="M1041 4964 c-23 -7 -48 -18 -56 -24 -8 -7 -15 -10 -15 -6 0 7 -30
-17 -86 -71 -24 -22 -44 -46 -44 -52 0 -6 -4 -11 -10 -11 -5 0 -10 -7 -10 -15
0 -8 -3 -15 -8 -15 -4 0 -12 -9 -17 -19 -6 -11 -34 -59 -64 -107 -101 -163
-209 -376 -281 -554 -12 -30 -28 -68 -35 -85 -7 -16 -18 -48 -25 -70 -7 -22
-17 -46 -23 -53 -5 -7 -7 -15 -4 -19 4 -3 1 -15 -5 -27 -7 -11 -13 -25 -14
-31 -1 -5 -12 -44 -24 -85 -12 -41 -23 -79 -25 -85 -1 -5 -5 -17 -8 -25 -8
-22 -40 -172 -41 -192 0 -10 -3 -18 -6 -18 -3 0 -6 -8 -6 -17 -1 -20 -12 -86
-20 -123 -3 -14 -7 -43 -9 -65 -2 -22 -4 -40 -5 -40 -1 0 -3 -13 -5 -30 -1
-16 -6 -61 -11 -100 -16 -135 -9 -739 11 -850 2 -16 7 -43 10 -60 2 -16 9 -50
15 -75 6 -25 13 -56 16 -70 11 -51 68 -208 105 -289 22 -46 39 -87 39 -91 0
-4 26 -61 57 -126 31 -65 56 -122 55 -127 -1 -4 1 -7 6 -7 4 0 14 -15 21 -32
8 -18 39 -73 68 -122 29 -49 53 -90 53 -93 0 -2 5 -9 11 -16 5 -7 36 -49 68
-94 32 -45 85 -115 117 -155 109 -136 348 -364 433 -414 17 -10 31 -22 31 -26
0 -4 4 -8 9 -8 5 0 40 -21 78 -46 65 -43 293 -160 330 -169 10 -3 65 -21 123
-41 102 -35 194 -62 235 -69 11 -2 31 -6 45 -9 93 -22 201 -31 370 -31 178 0
246 6 368 31 15 3 40 7 55 10 15 3 51 12 80 20 29 8 59 16 67 17 44 7 282 97
291 110 3 5 8 8 10 6 9 -5 57 16 136 62 46 27 87 49 89 49 9 0 203 138 224
160 8 8 31 27 50 41 40 30 182 170 252 248 72 80 138 166 209 271 35 52 66 97
69 100 5 5 16 24 67 115 41 75 174 345 178 365 1 3 5 12 8 20 17 41 78 205 81
219 2 9 6 23 9 31 11 31 32 95 34 110 1 8 4 26 6 40 3 14 8 48 12 75 4 28 9
59 11 70 40 186 50 676 19 935 -12 95 -24 186 -30 219 -2 13 -7 45 -10 70 -4
25 -9 53 -13 61 -3 8 -6 22 -7 30 -11 91 -145 520 -203 651 -16 35 -30 69 -32
74 -10 34 -126 246 -234 428 -44 75 -90 155 -101 177 -28 56 -72 100 -125 124
-57 25 -61 26 -141 27 -66 1 -133 -17 -189 -50 -48 -29 -108 -101 -118 -144
-22 -88 -12 -123 108 -392 10 -22 30 -69 45 -105 15 -36 38 -92 52 -125 59
-141 161 -431 170 -480 3 -16 8 -37 13 -45 4 -8 11 -33 15 -55 5 -22 9 -44 11
-50 10 -37 36 -156 39 -185 3 -19 7 -44 9 -55 3 -11 8 -42 11 -70 4 -27 8 -61
11 -75 8 -48 17 -246 17 -355 0 -148 -11 -301 -30 -405 -3 -19 -7 -46 -9 -60
-6 -50 -64 -278 -81 -320 -4 -8 -7 -17 -8 -20 -22 -87 -132 -325 -202 -438
-88 -142 -157 -235 -235 -316 -27 -27 -48 -53 -48 -57 0 -5 -3 -9 -7 -9 -5 0
-24 -15 -43 -33 -19 -18 -57 -50 -85 -72 -27 -22 -52 -42 -55 -45 -21 -23
-230 -143 -230 -133 0 4 -4 3 -8 -3 -8 -13 -98 -54 -118 -54 -8 0 -14 -4 -14
-10 0 -5 -3 -9 -7 -8 -5 1 -39 -7 -78 -19 -38 -12 -83 -24 -100 -27 -16 -3
-41 -8 -55 -11 -48 -12 -116 -18 -220 -18 -98 -1 -236 10 -250 18 -4 2 -18 6
-31 8 -63 12 -192 58 -279 100 -53 25 -203 116 -210 127 -3 4 -10 9 -16 11
-41 15 -255 222 -334 324 -30 39 -59 75 -65 82 -23 28 -31 39 -44 66 -8 15
-18 27 -23 27 -4 0 -8 6 -8 14 0 7 -10 25 -21 40 -32 40 -133 241 -162 321
-14 39 -29 81 -35 95 -5 14 -15 45 -22 70 -7 25 -16 56 -21 70 -5 14 -11 36
-14 50 -6 30 -22 106 -30 140 -3 14 -8 45 -10 70 -2 25 -5 45 -6 45 -3 0 -7
36 -12 101 -2 33 -6 65 -9 70 -6 12 -1 366 7 434 3 30 8 78 11 105 2 28 6 61
8 75 13 87 45 260 50 268 2 4 7 23 10 42 3 19 10 50 15 68 5 18 11 36 12 40 1
4 3 12 5 17 6 18 26 100 25 100 -1 0 10 34 25 75 14 41 27 80 28 85 6 28 40
121 46 130 5 6 9 15 10 20 1 6 6 20 11 33 5 13 9 25 9 27 0 3 12 30 26 62 53
120 81 172 97 184 5 3 8 8 6 10 -1 2 8 24 21 48 122 239 99 461 -56 539 -72
36 -140 45 -203 26z m3467 -1949 c-3 -4 -2 -20 2 -36 8 -26 6 -31 -13 -38 -41
-15 -61 -8 -68 24 -8 44 -3 51 44 54 23 1 39 -1 35 -4z m-3944 -51 c12 -12 13
-20 6 -35 -6 -10 -7 -19 -3 -19 4 0 2 -5 -4 -11 -6 -6 -25 -8 -44 -4 -33 6
-34 8 -31 46 4 35 7 39 32 39 16 0 36 -7 44 -16z m3919 -694 c13 0 17 -7 15
-31 -3 -37 -18 -51 -52 -47 -35 5 -38 11 -30 53 6 31 10 36 28 31 11 -3 29 -6
39 -6z m-3886 -55 c1 -11 3 -28 5 -37 2 -9 0 -17 -4 -18 -4 -1 -21 -5 -37 -10
-28 -8 -30 -6 -39 32 -9 36 -8 40 11 48 34 14 62 7 64 -15z m3641 -659 c12
-11 11 -19 -2 -45 -9 -17 -18 -31 -20 -31 -11 0 -66 23 -66 28 0 3 5 21 12 39
11 30 16 33 38 28 14 -4 31 -12 38 -19z m-3378 -32 c0 -8 4 -14 8 -14 17 0 10
-39 -9 -45 -10 -4 -19 -11 -19 -16 0 -17 -25 -5 -42 21 -24 34 -23 37 14 60
33 20 48 18 48 -6z m3009 -565 c1 -3 -12 -17 -27 -32 l-29 -28 -26 21 c-29 23
-27 45 6 72 20 15 23 15 48 -5 16 -12 28 -25 28 -28z m-2608 -1 c23 -29 23
-30 -4 -62 l-23 -27 -27 25 c-33 30 -34 42 -4 67 29 24 35 24 58 -3z"/>
</g>
</svg>
